<svg width="25" height="16" viewBox="0 0 25 16" fill="none" xmlns="http://www.w3.org/2000/svg">
<path fill-rule="evenodd" clip-rule="evenodd" d="M0.273437 8C0.273437 7.76429 0.366474 7.53822 0.532079 7.37155C0.697685 7.20487 0.922295 7.11124 1.1565 7.11124L21.9844 7.11124L16.4264 1.51913C16.2606 1.35225 16.1674 1.1259 16.1674 0.889887C16.1674 0.653875 16.2606 0.427528 16.4264 0.260641C16.5922 0.0937551 16.8171 3.10502e-07 17.0516 3.01386e-07C17.2861 2.92269e-07 17.511 0.0937551 17.6768 0.260641L24.7413 7.37075C24.8235 7.45331 24.8888 7.55139 24.9333 7.65937C24.9778 7.76734 25.0007 7.8831 25.0007 8C25.0007 8.1169 24.9778 8.23266 24.9333 8.34063C24.8888 8.44861 24.8235 8.54669 24.7413 8.62924L17.6768 15.7394C17.511 15.9062 17.2861 16 17.0516 16C16.8171 16 16.5922 15.9062 16.4264 15.7394C16.2606 15.5725 16.1674 15.3461 16.1674 15.1101C16.1674 14.8741 16.2606 14.6478 16.4264 14.4809L21.9844 8.88876L1.1565 8.88876C0.922295 8.88876 0.697686 8.79513 0.53208 8.62845C0.366474 8.46178 0.273437 8.23572 0.273437 8Z" fill="#D4D4D4"/>
</svg>
