<svg width="60" height="61" viewBox="0 0 60 61" fill="none" xmlns="http://www.w3.org/2000/svg">
<rect x="0.5" y="1.40039" width="59" height="59" rx="9.5" fill="#303030"/>
<rect x="0.5" y="1.40039" width="59" height="59" rx="9.5" stroke="#606060"/>
<path d="M30.0004 32.7513C29.8704 32.7513 29.7404 32.7213 29.6304 32.6513C29.2704 32.4413 29.1504 31.9813 29.3504 31.6313L30.2004 30.1513H29.3604C28.8604 30.1513 28.4504 29.9313 28.2304 29.5613C28.0104 29.1813 28.0304 28.7213 28.2804 28.2813L29.3504 26.4213C29.5604 26.0613 30.0204 25.9413 30.3704 26.1413C30.7304 26.3513 30.8504 26.8113 30.6504 27.1613L29.8004 28.6513H30.6404C31.1404 28.6513 31.5504 28.8713 31.7704 29.2413C31.9904 29.6213 31.9704 30.0813 31.7204 30.5213L30.6504 32.3813C30.5104 32.6213 30.2604 32.7513 30.0004 32.7513Z" fill="#95D3FF"/>
<path d="M32.7711 38.6507H27.2611C26.8211 38.6507 26.2611 38.6007 25.8911 38.2207C25.5311 37.8507 25.5411 37.3907 25.5511 37.0807V36.1907C23.0311 34.5107 21.3711 31.5907 21.3711 28.8107C21.3711 26.1807 22.5511 23.7207 24.6011 22.0707C26.6511 20.4207 29.3411 19.8007 31.9711 20.3807C34.4711 20.9307 36.6311 22.6007 37.7511 24.8507C39.9211 29.2207 37.8311 33.9507 34.4911 36.2007V36.9507C34.5011 37.2407 34.5111 37.7707 34.1011 38.1907C33.7911 38.4907 33.3511 38.6507 32.7711 38.6507ZM27.0411 37.1407C27.0911 37.1407 27.1611 37.1507 27.2511 37.1507H32.7711C32.8711 37.1507 32.9411 37.1407 32.9811 37.1307C32.9811 37.1007 32.9811 37.0607 32.9811 37.0307V35.7707C32.9811 35.5107 33.1211 35.2607 33.3411 35.1307C36.3011 33.3407 38.2611 29.2507 36.3911 25.5007C35.4711 23.6507 33.6911 22.2807 31.6311 21.8307C29.4511 21.3507 27.2211 21.8607 25.5211 23.2307C23.8211 24.6007 22.8511 26.6307 22.8511 28.8107C22.8511 31.5907 24.7711 33.9907 26.6711 35.1407C26.9011 35.2807 27.0311 35.5207 27.0311 35.7807V37.1307C27.0411 37.1307 27.0411 37.1307 27.0411 37.1407Z" fill="#95D3FF"/>
<path d="M33.4993 41.6498C33.4293 41.6498 33.3593 41.6398 33.2893 41.6198C31.1293 40.9998 28.8593 40.9998 26.6993 41.6198C26.2993 41.7298 25.8893 41.4998 25.7693 41.0998C25.6493 40.6998 25.8893 40.2898 26.2893 40.1698C28.7093 39.4798 31.2793 39.4798 33.6993 40.1698C34.0993 40.2798 34.3293 40.6998 34.2193 41.0998C34.1293 41.4398 33.8293 41.6498 33.4993 41.6498Z" fill="#95D3FF"/>
</svg>
